<?xml version="1.0" encoding="UTF-8"?>
<svg id="Layer_1" data-name="Layer 1" xmlns="http://www.w3.org/2000/svg" xmlns:xlink="http://www.w3.org/1999/xlink" viewBox="0 0 198.69 324.86">
  <defs>
    <style>
      .cls-1 {
        fill: url(#linear-gradient-2);
      }

      .cls-2 {
        fill: #a09c9d;
      }

      .cls-3 {
        fill: url(#linear-gradient-4);
      }

      .cls-4 {
        fill: #63a8b0;
      }

      .cls-5 {
        fill: url(#linear-gradient-3);
      }

      .cls-6 {
        fill: url(#linear-gradient-5);
      }

      .cls-7 {
        fill: url(#linear-gradient);
      }
    </style>
    <linearGradient id="linear-gradient" x1="65.66" y1="102.33" x2="88.7" y2="113.63" gradientUnits="userSpaceOnUse">
      <stop offset="0" stop-color="#3a6971"/>
      <stop offset="1" stop-color="#3a6971" stop-opacity="0"/>
    </linearGradient>
    <linearGradient id="linear-gradient-2" x1="59.17" y1="145.6" x2="109.15" y2="170.1" xlink:href="#linear-gradient"/>
    <linearGradient id="linear-gradient-3" x1="196.24" y1="322.21" x2="58.46" y2="277.98" xlink:href="#linear-gradient"/>
    <linearGradient id="linear-gradient-4" x1="59.17" y1="191.52" x2="109.15" y2="216.02" xlink:href="#linear-gradient"/>
    <linearGradient id="linear-gradient-5" x1="59.17" y1="53.89" x2="109.15" y2="78.39" xlink:href="#linear-gradient"/>
  </defs>
  <g>
    <path class="cls-4" d="M142.21,125.6c-.83,5.79-2.54,11.64-4.5,17.13-.2.55-3.54,9.06-2.82,4.02,6.85-47.83-70.05-38.11-62.04-84.77.95-5.61,2.45-12.52,5.06-17.59.81-1.57,1.37-2.54,1.67-2.74.38-.26.35.71-.08,3.2-3.77,21.91,26.69,30.85,40.91,38.75,5.51,3.05,10.1,6.76,13.65,11.05,6.89,8.29,9.9,18.77,8.16,30.95Z"/>
    <path class="cls-4" d="M142.2,171.47c-.81,5.77-2.54,11.63-4.5,17.12-.2.54-3.54,9.05-2.8,4.02,4.07-28.56-21.68-36.6-41.39-48.38l.24-.24c1.11-1.11,2.24-2.25,3.37-3.4,2.45-2.5,4.94-5.08,7.33-7.73,2.49-2.78,4.7-5.46,6.57-8.04.44.21.87.41,1.3.61,1.38.66,2.71,1.28,3.98,1.9.49.24.97.48,1.44.72.24.12.47.24.7.36.32.17.64.33.95.5.35.19.69.37,1.01.56h0c1.77.98,3.44,2.04,5.02,3.15.4.28.79.57,1.16.84.38.29.76.59,1.13.87.08.07.16.13.24.19.66.54,1.28,1.07,1.9,1.63.35.31.69.63,1.01.94.33.32.66.65.97.96.67.69,1.31,1.39,1.92,2.12.1.11.2.22.28.34h0c6.89,8.3,9.9,18.78,8.15,30.97Z"/>
    <g>
      <path class="cls-4" d="M100.84,119.81h0c-1.4,1.83-2.96,3.65-4.69,5.51-2.86,3.16-5.97,6.27-9.02,9.29-.35.35-.7.7-1.04,1.03l-1.73,1.71-.33.32c-8.32-6.92-13.57-15.83-11.17-29.83.97-5.61,2.46-12.53,5.07-17.6.81-1.56,1.36-2.52,1.66-2.73h0c.07-.06.12-.06.17-.02.18.18.09,1.2-.26,3.23-.33,1.9-.4,3.7-.23,5.41.02.29.05.58.1.86.11.85.28,1.69.52,2.5.45,1.63,1.1,3.16,1.96,4.62.27.49.57.96.89,1.43,1.08,1.61,2.39,3.12,3.86,4.53.03.02.06.05.09.08.43.43.87.83,1.33,1.22.23.21.46.4.69.59.23.2.47.4.71.58,1.68,1.35,3.48,2.6,5.38,3.8.96.61,1.95,1.19,2.94,1.76,1.03.59,2.08,1.15,3.12,1.71Z"/>
      <path class="cls-7" d="M100.83,119.82c-1.4,1.82-2.96,3.64-4.69,5.5-2.86,3.16-5.97,6.27-9.02,9.29-2.28-1.87-4.94-4.53-7.2-8.22-10.11-16.5-1.63-36.07-.35-38.88h0c.07-.06.12-.06.17-.02.19.15.1,1.17-.25,3.21-.33,1.91-.4,3.71-.24,5.43.03.29.06.58.1.86.12.85.29,1.69.52,2.5.46,1.62,1.12,3.16,1.96,4.62.28.48.59.95.89,1.43,1.09,1.6,2.4,3.11,3.86,4.53.03.02.06.05.09.08.43.43.87.83,1.33,1.22.22.2.46.39.69.59.23.2.47.39.71.58,1.68,1.35,3.48,2.6,5.38,3.8.95.61,1.94,1.19,2.94,1.76,1.02.6,2.07,1.16,3.11,1.72Z"/>
    </g>
    <path class="cls-4" d="M72.85,153.69c-8.01,46.66,68.89,36.93,62.04,84.77-.72,5.04,2.62-3.47,2.82-4.02,1.96-5.5,3.67-11.33,4.5-17.13,2.65-18.48-5.66-33.04-21.8-42.01-14.21-7.89-44.67-16.83-40.91-38.74.77-4.49.25-4.02-1.58-.46-2.61,5.06-4.1,11.98-5.07,17.59h0Z"/>
    <path class="cls-1" d="M134.05,186.36c-9.01,2.87-27.49,6.79-42.85-2.96-2.22-1.41-7.35-4.75-11.28-11.15-10.12-16.52-1.61-36.11-.34-38.89.38-.26.35.71-.08,3.2-3.77,21.91,26.69,30.85,40.91,38.75,5.51,3.05,10.1,6.76,13.65,11.05Z"/>
    <path class="cls-4" d="M109.92,110.3c1.77,1.01,3.49,2.05,5.13,3.13-.63,1.27-1.29,2.52-2.01,3.77-2.87,5.09-6.58,9.77-10.42,14.02-3.84,4.25-7.83,8.24-11.8,12.25l-6.34,6.12c-1.27-1.96-2.16-4.08-2.57-6.38,1.47-1.44,2.91-2.89,4.36-4.34,3.97-3.95,7.96-7.85,11.67-11.93,3.75-4.03,7.05-8.22,9.81-12.85.75-1.23,1.49-2.5,2.16-3.8Z"/>
    <path class="cls-4" d="M123.74,82.74c-.71-.45-1.42-.86-2.16-1.27-.78-.43-1.62-.88-2.48-1.34,2.96-20.7.91-42.1-2.13-63.13,5.69,21.16,9.3,43.39,6.77,65.74Z"/>
    <path class="cls-4" d="M147.73,282.96c-8.32,9.08-25.11,25.09-43.93,29.87-18.72,4.39-39.38.52-55.11-10.64-30.4-21.56-28.08-65.97-20.89-90.13.25-.87.54-1.76.81-2.61,3.8-11.45,10.25-21.82,18.3-30.79,7.46-8.39,15.38-16.22,23.31-24-.45,3.23-.5,6.18-.24,8.92l-3.43,3.29c-2.81,2.66-7.01,6.66-11.97,11.73-2.15,2.17-8.49,8.67-11.39,12.12-8.94,10.66-16.27,29.55-12.42,48.87,2.22,11.16,7.43,18.77,9.83,22.22,4.12,5.88,8.66,10.27,12.71,13.5,4.13,3.26,7.75,5.31,9.83,6.49,29.66,16.64,73.29,10.18,82.52-1.87.82-1.08,1.38-2.18,1.61-3.33.49-2.29-.47-4.29-1.76-7.08-3.31-7.08-9.39-9.73-23.46-17.7,0,0-1.9-1.08-11.93-6.97-21.76-12.77-32.45-19.45-35.98-28.39-1.85-4.66-2.44-10.17-1.28-16.92.96-5.61,2.45-12.52,5.06-17.58,1.14-2.22,1.78-3.24,1.9-2.6,0,.03.02.07.02.1.05.44-.05,1.41-.32,2.96-.12.64-.2,1.29-.25,1.92-.07.91-.08,1.82-.05,2.69.27,5.48,2.81,10.07,6.62,14.05.47.5.97,1.01,1.51,1.48.22.2.44.42.67.61,9.85,8.77,25.6,14.42,34.55,20.08,2.25,1.41,4.55,2.84,6.89,4.3,4.2,2.62,8.49,5.31,12.67,8.13.57.39,1.14.77,1.7,1.19.03.02.07.05.1.07,2.82,2.15,6.64,5.75,9.31,11.21,1.34,2.76,2.18,5.5,2.64,8.13,1.66,9.63-1.55,19.46-8.15,26.67Z"/>
    <path class="cls-5" d="M145.66,279.93c-1.38,2.64-3.24,5.66-5.75,8.77-13.95,17.24-38.66,25.18-60.89,21.29-23.39-4.08-37.18-20.07-41.11-24.99,5.14-3.24,10.27-6.47,15.39-9.7,4.13,3.26,7.75,5.31,9.83,6.49,29.66,16.64,73.29,10.18,82.52-1.87Z"/>
    <path class="cls-3" d="M134.05,232.28c-9.01,2.87-27.49,6.79-42.85-2.96-2.22-1.41-7.35-4.75-11.28-11.15-10.12-16.52-1.61-36.11-.34-38.89.11-.07.18-.05.23.08,0,.03,0,.07.02.11.06.41-.05,1.38-.33,3.01-.11.63-.19,1.25-.24,1.86-.08.91-.1,1.82-.06,2.68.25,5.52,2.8,10.13,6.63,14.06.47.5.97.99,1.5,1.47.22.2.45.41.68.61,9.85,8.77,25.59,14.41,34.56,20.08,2.25,1.42,4.55,2.85,6.89,4.3,1.69,1.49,3.23,3.07,4.6,4.74Z"/>
    <rect class="cls-2" x="87.26" y="37.19" width="19.94" height="19.94" transform="translate(-4.87 82.57) rotate(-45)"/>
    <rect class="cls-2" x="50.95" y="235.39" width="19.94" height="19.94" transform="translate(-155.65 114.94) rotate(-45)"/>
    <rect class="cls-2" x="87.26" y="14.4" width="19.94" height="19.94" transform="translate(11.25 75.89) rotate(-45)"/>
    <rect class="cls-2" x="151.4" y="221.29" width="19.94" height="19.94" transform="translate(-116.26 181.84) rotate(-45)"/>
    <rect class="cls-2" x="151.4" y="198.5" width="19.94" height="19.94" transform="translate(-100.15 175.17) rotate(-45)"/>
    <rect class="cls-2" x="151.4" y="160.83" width="19.94" height="19.94" transform="translate(-73.51 164.13) rotate(-45)"/>
  </g>
  <path class="cls-6" d="M134.05,94.65c-9.01,2.87-27.49,6.79-42.85-2.96-2.22-1.41-7.35-4.75-11.28-11.15-10.12-16.52-1.61-36.11-.34-38.89.38-.26.35.71-.08,3.2-3.77,21.91,26.69,30.85,40.91,38.75,5.51,3.05,10.1,6.76,13.65,11.05Z"/>
</svg>